# AST/ASF file generated using VICON BodyLanguage
# -----------------------------------------------
:version 1.10
:name VICON
:units
  mass 1.0
  length 0.45
  angle deg
:documentation
   .ast/.asf automatically generated from VICON data using
   VICON BodyBuilder and BodyLanguage model FoxedUp or BRILLIANT.MOD
:root
   order TX TY TZ RX RY RZ
   axis XYZ
   position 0 0 0  
   orientation 0 0 0 
:bonedata
  begin
     id 1 
     name lhipjoint
     direction 0.535335 -0.74333 0.401095 
     length 2.04549 
     axis 0 0 0  XYZ
  end
  begin
     id 2 
     name lfemur
     direction 0.34202 -0.939693 0  
     length 6.95643  
     axis 0 0 20  XYZ
    dof rx ry rz
    limits (-160.0 20.0)
           (-70.0 70.0)
           (-60.0 70.0)
  end
  begin
     id 3 
     name ltibia
     direction 0.34192 -0.939729 0   
     length 5.55969   
     axis 0 0 20   XYZ
    dof rx
    limits (-10.0 170.0)
  end
  begin
     id 4 
     name lfoot
     direction 0.216943 -0.596046 0.773088   
     length 2.27918   
     axis -90 7.62852e-016 20   XYZ
    dof rx rz
    limits (-45.0 90.0)
           (-70.0 20.0)
  end
  begin
     id 5 
     name ltoes
     direction 1.53519e-011 -4.21748e-011 1   
     length 1.05562   
     axis -90 7.62852e-016 20   XYZ
    dof rx
    limits (-90.0 20.0)
  end
  begin
     id 6 
     name rhipjoint
     direction -0.576368 -0.719173 0.38806   
     length 2.1142  
     axis 0 0 0  XYZ 
  end
  begin
     id 7 
     name rfemur
     direction -0.34202 -0.939693 0   
     length 7.07928   
     axis 0 0 -20   XYZ
    dof rx ry rz
    limits (-160.0 20.0)
           (-70.0 70.0)
           (-70.0 60.0)
  end
  begin
     id 8 
     name rtibia
     direction -0.34202 -0.939693 0   
     length 5.79974   
     axis 0 0 -20   XYZ
    dof rx
    limits (-10.0 170.0)
 end
 begin
     id 9 
     name rfoot
     direction -0.189288 -0.520065 0.832888   
     length 2.42173  
     axis -90 -7.62852e-016 -20   XYZ
    dof rx rz
    limits (-45.0 90.0)
           (-20.0 70.0)
  end
  begin
     id 10 
     name rtoes
     direction -1.53574e-011 -4.21658e-011 1   
     length 1.14469   
     axis -90 -7.62852e-016 -20   XYZ
    dof rx
    limits (-90.0 20.0)
  end
  begin
     id 11 
     name lowerback
     direction -0.00135702 0.993803 0.111144   
     length 1.91308   
     axis 0 0 0   XYZ
    dof rx ry rz
    limits (-20.0 45.0)
           (-30.0 30.0)
           (-30.0 30.0)
  end
  begin
     id 12 
     name upperback
     direction -0.0056745 0.999813 0.0184631   
     length 1.9212   
     axis 0 0 0   XYZ
    dof rx ry rz
    limits (-20.0 45.0)
           (-30.0 30.0)
           (-30.0 30.0)
  end
  begin
     id 13 
     name thorax
     direction -0.00733434 0.999426 -0.0330788   
     length 1.94196   
     axis 0 0 0   XYZ
    dof rx ry rz
    limits (-20.0 45.0)
           (-30.0 30.0)
           (-30.0 30.0)
  end
  begin
     id 14 
     name lowerneck
     direction 0.0563074 0.996944 -0.0541571   
     length 2.34257   
     axis 0 0 0   XYZ
    dof rx ry rz
    limits (-20.0 45.0)
           (-30.0 30.0)
           (-30.0 30.0)
  end
  begin
     id 15 
     name upperneck
     direction -0.0544519 0.976166 -0.210085   
     length 2.32506   
     axis 0 0 0   XYZ
    dof rx ry rz
    limits (-20.0 45.0)
           (-30.0 30.0)
           (-30.0 30.0)
  end
  begin
     id 16
     name head
     direction -0.0226035 0.997615 -0.0652205  
     length 2.3648  
     axis 0 0 0   XYZ
    dof rx ry rz
    limits (-20.0 45.0)
           (-30.0 30.0)
           (-30.0 30.0)
  end
  begin
     id 17 
     name lclavicle
     direction 0.92109 0.381297 -0.0787716  
     length 4.0487  
     axis 0 0 0   XYZ
    dof ry rz
    limits (-20.0 10.0)
           (0.0 20.0)
  end
  begin
     id 18 
     name lhumerus
     direction 1 -4.48986e-011 3.56724e-027   
     length 4.94991   
     axis 180 -30 -90   XYZ
    dof rx ry rz
    limits (-60.0 90.0)
           (-90.0 90.0)
           (-90.0 90.0)
  end
  begin
     id 19
     name lradius
     direction 1 -4.48981e-011 8.62147e-027   
     length 2.7606   
     axis 180 -30 -90   XYZ
    dof rx
    limits (-10.0 170.0)
  end
  begin
     id 20
     name lwrist
     direction 1 -4.48989e-011 1.59799e-026   
     length 1.3803   
     axis -1.17785e-014 90 90   XYZ
    dof ry
    limits (-180.0 0.0)
 end
  begin
     id 21 
     name lhand
     direction 1 -4.48896e-011 3.19599e-026   
     length 0.843936   
     axis -2.03931e-014 90 90   XYZ
    dof rx rz
    limits (-90.0 90.0)
           (-45.0 45.0)
  end
  begin
     id 22 
     name lfingers
     direction 1 -4.48887e-011 6.39197e-026   
     length 0.680403   
     axis -4.07862e-014 90 90   XYZ
    dof rx
    limits (0.0 90.0)
  end
  begin
     id 23
     name lthumb
     direction 0.707107 -6.348e-011 0.707107   
     length 0.976926   
     axis -90 45 2.85299e-015   XYZ
    dof rx rz
    limits (-45.0 45.0)
           (-45.0 45.0)
  end
  begin
     id 24 
     name rclavicle
     direction -0.951104 0.307692 -0.026953   
     length 4.21801  
     axis 0 0 0   XYZ 
    dof ry rz
    limits (-10.0 20.0)
           (-20.0 0.0)
  end
  begin
     id 25 
     name rhumerus
     direction -1 -4.4896e-011 -1.8171e-018  
     length 4.32982   
     axis 180 30 90   XYZ
    dof rx ry rz
    limits (-90.0 60.0)
           (-90.0 90.0)
           (-90.0 90.0)
  end
  begin
     id 26 
     name rradius
     direction -1 -4.48959e-011 8.25165e-027   
     length 3.20057   
     axis 180 30 90   XYZ
    dof rx
    limits (-10.0 170.0)
  end
  begin
     id 27 
     name rwrist
     direction -1 -4.48997e-011 1.59799e-026   
     length 1.60029   
     axis -1.17785e-014 -90 -90   XYZ
    dof ry
    limits (-180.0 0.0)
  end
  begin
     id 28
     name rhand
     direction -1 -4.49023e-011 3.19599e-026   
     length 0.960433   
     axis -2.03931e-014 -90 -90   XYZ
    dof rx rz
    limits (-90.0 90.0)
           (-45.0 45.0)
  end
  begin
     id 29
     name rfingers
     direction -1 -4.48802e-011 6.39197e-026   
     length 0.774326   
     axis -4.07862e-014 -90 -90   XYZ
    dof rx
    limits (0.0 90.0)
  end
  begin
     id 30
     name rthumb
     direction -0.707107 -6.34876e-011 0.707107   
     length 1.11178   
     axis -90 -45 -2.85299e-015   XYZ
    dof rx rz
    limits (-45.0 45.0)
           (-45.0 45.0)
  end
:hierarchy
  begin
    root lhipjoint rhipjoint lowerback
    lhipjoint lfemur
    lfemur ltibia
    ltibia lfoot
    lfoot ltoes
    rhipjoint rfemur
    rfemur rtibia
    rtibia rfoot
    rfoot rtoes
    lowerback upperback
    upperback thorax
    thorax lowerneck lclavicle rclavicle
    lowerneck upperneck
    upperneck head
    lclavicle lhumerus
    lhumerus lradius
    lradius lwrist
    lwrist lhand lthumb
    lhand lfingers
    rclavicle rhumerus
    rhumerus rradius
    rradius rwrist
    rwrist rhand rthumb
    rhand rfingers
end

#!OML:ASF C:\KaitlinTest1\Natural Motions\Nikki\Session 2\Nikki.ASF
:FULLY-SPECIFIED
:DEGREES
1
root -13.6985 16.6531 4.53297 -107.02 87.6953 -115.048
lowerback -11.0822 -0.954986 2.86577
upperback -3.6521 -1.40716 -1.08926
thorax 2.2984 -0.654924 -2.9237
lowerneck -5.17834 -11.6406 -10.0168
upperneck 5.97068 40.6649 5.7745
head 167.384 61.7979 -37.5191
rclavicle -2.1419e-014 -2.38542e-015
rhumerus -40.1374 -29.1367 -79.8559
rradius 16.8526
rwrist 27.3697
rhand -36.5341 2.16611
rfingers 7.12502
rthumb -9.62518 -27.594
lclavicle -2.1419e-014 -2.38542e-015
lhumerus -39.8013 15.811 81.5394
lradius 20.4452
lwrist -41.5938
lhand -33.6245 3.62814
lfingers 7.12502
lthumb -6.81709 33.4984
rfemur -5.2862 -13.5239 19.9863
rtibia 11.4745
rfoot -10.9935 10.8321
rtoes -2.22639e-014
lfemur -11.0306 14.6948 -18.7885
ltibia 15.881
lfoot -4.98404 -15.2591
ltoes -1.90833e-014
2
root -13.6978 16.6532 4.533 -106.837 87.7145 -114.867
lowerback -11.1039 -0.952149 2.86078
upperback -3.64012 -1.40337 -1.10233
thorax 2.32278 -0.652577 -2.93475
lowerneck -5.1817 -11.6472 -9.9915
upperneck 5.9612 40.6249 5.77129
head 167.336 61.8572 -37.5535
rclavicle -5.51627e-015 -1.11319e-014
rhumerus -40.1239 -29.1291 -79.9025
rradius 16.8625
rwrist 27.3345
rhand -36.5302 2.1361
rfingers 7.12502
rthumb -9.62141 -27.6242
lclavicle -5.51627e-015 -1.11319e-014
lhumerus -39.7731 15.7644 81.5542
lradius 20.4348
lwrist -41.5909
lhand -33.6274 3.63252
lfingers 7.12502
lthumb -6.81985 33.5027
rfemur -5.30418 -13.5663 19.9675
rtibia 11.5118
rfoot -11.0109 10.8925
rtoes -1.11319e-014
lfemur -11.0222 14.7096 -18.8057
ltibia 15.8691
lfoot -4.98883 -15.2604
ltoes -3.81667e-014
3
root -13.6974 16.6536 4.53334 -107.12 87.6967 -115.164
lowerback -11.1338 -0.94901 2.88854
upperback -3.63111 -1.40281 -1.11161
thorax 2.34753 -0.651828 -2.96091
lowerneck -5.18654 -11.6501 -9.97329
upperneck 5.96266 40.6326 5.78495
head 167.372 61.8512 -37.5372
rclavicle -6.31141e-015 -6.36111e-015
rhumerus -40.1201 -29.1628 -79.914
rradius 16.8628
rwrist 27.3292
rhand -36.5416 2.14872
rfingers 7.12502
rthumb -9.63242 -27.6111
lclavicle -6.31141e-015 -6.36111e-015
lhumerus -39.7505 15.8146 81.5133
lradius 20.4173
lwrist -41.7024
lhand -33.5943 3.61496
lfingers 7.12502
lthumb -6.78797 33.4862
rfemur -5.32464 -13.5745 19.9875
rtibia 11.5308
rfoot -11.0124 10.8808
rtoes -7.95139e-016
lfemur -11.0378 14.7302 -18.7968
ltibia 15.866
lfoot -4.98375 -15.3023
ltoes -3.33958e-014
4
root -13.6976 16.654 4.53384 -107.477 87.694 -115.525
lowerback -11.1386 -0.946233 2.8968
upperback -3.63423 -1.39986 -1.11377
thorax 2.34683 -0.650349 -2.96753
lowerneck -5.16342 -11.6496 -9.98393
upperneck 5.96659 40.6279 5.78707
head 167.402 61.8387 -37.5094
rclavicle 1.28216e-014 1.43125e-014
rhumerus -40.1404 -29.2063 -79.8813
rradius 16.8609
rwrist 27.3784
rhand -36.536 2.13312
rfingers 7.12502
rthumb -9.627 -27.6269
lclavicle 1.28216e-014 1.43125e-014
lhumerus -39.7494 15.8303 81.5167
lradius 20.3861
lwrist -41.6501
lhand -33.6349 3.53286
lfingers 7.12502
lthumb -6.82716 33.4028
rfemur -5.33665 -13.5885 19.9872
rtibia 11.5419
rfoot -11.0059 10.8898
rtoes 2.38542e-015
lfemur -11.0499 14.7289 -18.8001
ltibia 15.8677
lfoot -4.9683 -15.3123
ltoes 3.97569e-014
5
root -13.6977 16.6542 4.53503 -107.869 87.6845 -115.907
lowerback -11.139 -0.961378 2.89608
upperback -3.59321 -1.42115 -1.13446
thorax 2.38771 -0.660397 -2.99203
lowerneck -5.24158 -11.6658 -9.90517
upperneck 5.92955 40.5612 5.78473
head 167.324 61.9536 -37.5861
rclavicle -1.14301e-014 -5.96354e-015
rhumerus -40.0717 -29.2814 -79.9487
rradius 16.8469
rwrist 27.4547
rhand -36.5277 2.14101
rfingers 7.12502
rthumb -9.61898 -27.6194
lclavicle -1.14301e-014 -5.96354e-015
lhumerus -39.676 15.8134 81.5035
lradius 20.3887
lwrist -41.6326
lhand -33.6554 3.54561
lfingers 7.12502
lthumb -6.84695 33.4149
rfemur -5.32489 -13.5645 19.9927
rtibia 11.5473
rfoot -11.0258 10.848
rtoes 5.56597e-015
lfemur -11.0451 14.738 -18.7908
ltibia 15.8728
lfoot -4.99604 -15.3445
ltoes -1.43125e-014
6
root -13.6963 16.6543 4.53554 -107.652 87.6847 -115.698
lowerback -11.1132 -0.961918 2.90108
upperback -3.63207 -1.42016 -1.1314
thorax 2.33314 -0.660882 -2.99028
lowerneck -5.18902 -11.6654 -9.89948
upperneck 5.95574 40.5766 5.79602
head 167.284 61.9586 -37.61
rclavicle 7.20594e-015 1.39149e-014
rhumerus -40.144 -29.2629 -79.9193
rradius 16.8436
rwrist 27.449
rhand -36.5448 2.13098
rfingers 7.12502
rthumb -9.6355 -27.6287
lclavicle 7.20594e-015 1.39149e-014
lhumerus -39.7519 15.8833 81.4475
lradius 20.3877
lwrist -41.6601
lhand -33.6102 3.55608
lfingers 7.12502
lthumb -6.80326 33.4268
rfemur -5.33336 -13.603 19.9993
rtibia 11.5509
rfoot -11.034 10.8927
rtoes 3.57812e-014
lfemur -11.0582 14.7694 -18.7909
ltibia 15.8831
lfoot -4.9864 -15.3525
ltoes 5.725e-014
7
root -13.6961 16.6534 4.53689 -107.772 87.6867 -115.834
lowerback -11.1338 -0.963385 2.89606
upperback -3.63597 -1.42177 -1.12893
thorax 2.34043 -0.661422 -2.98552
lowerneck -5.19319 -11.6639 -9.89895
upperneck 5.96882 40.6202 5.80659
head 167.294 61.9249 -37.6125
rclavicle 7.45443e-015 -2.38542e-015
rhumerus -40.1571 -29.3397 -79.8606
rradius 16.8096
rwrist 27.5274
rhand -36.547 2.18845
rfingers 7.12502
rthumb -9.63764 -27.5711
lclavicle 7.45443e-015 -2.38542e-015
lhumerus -39.761 15.9175 81.4433
lradius 20.3906
lwrist -41.6886
lhand -33.6177 3.5799
lfingers 7.12502
lthumb -6.81056 33.4504
rfemur -5.34373 -13.5651 20.0052
rtibia 11.5301
rfoot -11.0123 10.8529
rtoes 1.59028e-014
lfemur -11.0745 14.6991 -18.7892
ltibia 15.9066
lfoot -5.01031 -15.283
ltoes 1.27222e-014
8
root -13.6962 16.6518 4.53753 -107.632 87.698 -115.695
lowerback -11.163 -0.954315 2.90182
upperback -3.61726 -1.41163 -1.13425
thorax 2.37632 -0.655683 -2.99408
lowerneck -5.20885 -11.6743 -9.88631
upperneck 5.9591 40.5972 5.80104
head 167.263 61.9462 -37.6355
rclavicle 2.1916e-014 1.43125e-014
rhumerus -40.1404 -29.4132 -79.8412
rradius 16.8001
rwrist 27.5703
rhand -36.5295 2.12458
rfingers 7.12502
rthumb -9.62068 -27.6357
lclavicle 2.1916e-014 1.43125e-014
lhumerus -39.7336 15.8982 81.4723
lradius 20.3794
lwrist -41.6286
lhand -33.6393 3.55717
lfingers 7.12502
lthumb -6.83138 33.427
rfemur -5.34081 -13.5619 20.0001
rtibia 11.53
rfoot -11.0361 10.8449
rtoes -1.03368e-014
lfemur -11.0766 14.6954 -18.798
ltibia 15.9189
lfoot -5.02855 -15.2735
ltoes -9.70069e-014
9
root -13.6958 16.6515 4.53772 -107.302 87.7006 -115.363
lowerback -11.1227 -0.949005 2.89782
upperback -3.65269 -1.40209 -1.12421
thorax 2.31841 -0.652015 -2.97859
lowerneck -5.15847 -11.6745 -9.89823
upperneck 5.98133 40.611 5.80617
head 167.242 61.9352 -37.6422
rclavicle -4.47266e-016 -7.95139e-015
rhumerus -40.2082 -29.4304 -79.7646
rradius 16.7784
rwrist 27.6167
rhand -36.5369 2.15864
rfingers 7.12502
rthumb -9.62788 -27.6014
lclavicle -4.47266e-016 -7.95139e-015
lhumerus -39.8137 15.9601 81.4461
lradius 20.3918
lwrist -41.679
lhand -33.5892 3.58491
lfingers 7.12502
lthumb -6.783 33.4563
rfemur -5.34019 -13.5647 20.0019
rtibia 11.5282
rfoot -11.0274 10.8566
rtoes -4.69132e-014
lfemur -11.0832 14.731 -18.801
ltibia 15.9307
lfoot -5.04552 -15.2969
ltoes -5.56597e-014
10
root -13.6954 16.651 4.53749 -107.013 87.7205 -115.071
lowerback -11.118 -0.944549 2.89291
upperback -3.65262 -1.39552 -1.12673
thorax 2.31648 -0.648808 -2.9775
lowerneck -5.16113 -11.6695 -9.89985
upperneck 5.99253 40.6501 5.81626
head 167.261 61.9085 -37.6377
rclavicle 2.03257e-014 1.19271e-015
rhumerus -40.2058 -29.427 -79.7693
rradius 16.7802
rwrist 27.5822
rhand -36.5585 2.13247
rfingers 7.12502
rthumb -9.64868 -27.6266
lclavicle 2.03257e-014 1.19271e-015
lhumerus -39.8318 16.0249 81.4142
lradius 20.3655
lwrist -41.7515
lhand -33.5965 3.5548
lfingers 7.12502
lthumb -6.7901 33.4259
rfemur -5.3381 -13.6038 19.9845
rtibia 11.5295
rfoot -11.0396 10.9007
rtoes -3.02153e-014
lfemur -11.0686 14.695 -18.8109
ltibia 15.9373
lfoot -5.07353 -15.2377
ltoes -5.24792e-014
11
root -13.6947 16.6511 4.53841 -107.096 87.7171 -115.143
lowerback -11.112 -0.946408 2.8891
upperback -3.64801 -1.39778 -1.12434
thorax 2.31798 -0.649934 -2.97306
lowerneck -5.14115 -11.6757 -9.90072
upperneck 5.97425 40.567 5.79418
head 167.198 61.987 -37.6632
rclavicle 5.56597e-015 1.47101e-014
rhumerus -40.211 -29.4349 -79.7623
rradius 16.7737
rwrist 27.5877
rhand -36.569 2.08683
rfingers 7.12502
rthumb -9.65878 -27.6717
lclavicle 5.56597e-015 1.47101e-014
lhumerus -39.8551 16.1482 81.3489
lradius 20.3625
lwrist -41.8926
lhand -33.5775 3.59252
lfingers 7.12502
lthumb -6.77168 33.4642
rfemur -5.3244 -13.6317 19.9908
rtibia 11.5386
rfoot -11.0741 10.9247
rtoes 7.31528e-014
lfemur -11.051 14.7174 -18.8025
ltibia 15.9317
lfoot -5.07849 -15.2691
ltoes 1.43125e-014
12
root -13.6946 16.6521 4.53874 -107.433 87.7356 -115.497
lowerback -11.1044 -0.947597 2.86895
upperback -3.6753 -1.39553 -1.12791
thorax 2.28604 -0.649265 -2.96451
lowerneck -5.12551 -11.6714 -9.90615
upperneck 5.99748 40.6252 5.81252
head 167.231 61.9422 -37.6502
rclavicle -7.25564e-015 -7.15625e-015
rhumerus -40.2597 -29.4549 -79.7213
rradius 16.7695
rwrist 27.5973
rhand -36.5793 2.09023
rfingers 7.12502
rthumb -9.6688 -27.6679
lclavicle -7.25564e-015 -7.15625e-015
lhumerus -39.8851 16.1262 81.3494
lradius 20.328
lwrist -41.8718
lhand -33.6191 3.56739
lfingers 7.12502
lthumb -6.81191 33.4378
rfemur -5.35423 -13.6405 19.9726
rtibia 11.5702
rfoot -11.1039 10.9194
rtoes 4.45278e-014
lfemur -11.0645 14.7056 -18.8299
ltibia 15.9196
lfoot -5.07576 -15.2644
ltoes -1.59028e-015
13
root -13.6951 16.6523 4.54002 -107.723 87.7255 -115.778
lowerback -11.1018 -0.950683 2.87156
upperback -3.66022 -1.40071 -1.12501
thorax 2.29995 -0.651656 -2.96377
lowerneck -5.13731 -11.6829 -9.89745
upperneck 5.98502 40.5883 5.79903
head 167.175 61.9697 -37.6834
rclavicle -2.24627e-014 -2.46493e-014
rhumerus -40.2454 -29.5076 -79.7029
rradius 16.7515
rwrist 27.6553
rhand -36.5877 2.1106
rfingers 7.12502
rthumb -9.67687 -27.6471
lclavicle -2.24627e-014 -2.46493e-014
lhumerus -39.8726 16.1094 81.3757
lradius 20.3544
lwrist -41.9
lhand -33.4676 3.63535
lfingers 7.12502
lthumb -6.66563 33.5104
rfemur -5.36443 -13.6022 19.9795
rtibia 11.6071
rfoot -11.0966 10.8809
rtoes -6.36111e-015
lfemur -11.057 14.7439 -18.821
ltibia 15.9075
lfoot -5.08641 -15.3382
ltoes 9.54166e-015
14
root -13.6947 16.6515 4.54032 -107.334 87.7193 -115.403
lowerback -11.1225 -0.945967 2.89884
upperback -3.66591 -1.39753 -1.12374
thorax 2.30485 -0.64995 -2.97789
lowerneck -5.12894 -11.676 -9.90295
upperneck 5.99146 40.6077 5.80574
head 167.215 61.9377 -37.6531
rclavicle -1.98785e-014 -6.36111e-015
rhumerus -40.2612 -29.4958 -79.7167
rradius 16.7692
rwrist 27.6269
rhand -36.5996 2.06051
rfingers 7.12502
rthumb -9.68837 -27.6967
lclavicle -1.98785e-014 -6.36111e-015
lhumerus -39.8758 16.1415 81.3559
lradius 20.3019
lwrist -41.8257
lhand -33.5723 3.57289
lfingers 7.12502
lthumb -6.76666 33.4448
rfemur -5.3794 -13.6009 19.9963
rtibia 11.6108
rfoot -11.1349 10.8926
rtoes 2.94201e-014
lfemur -11.0626 14.7395 -18.8082
ltibia 15.9131
lfoot -5.08408 -15.3026
ltoes -7.95139e-015
